<svg width="153" height="33" viewBox="0 0 153 33" fill="none" xmlns="http://www.w3.org/2000/svg">
<rect width="33" height="33" rx="16.5" fill="#6246EA"/>
<rect x="14" width="33" height="33" rx="16.5" fill="#D1D1E9"/>
<path d="M68.6719 17.5H62.8945V22.375H68.4023L68.5547 20.3359H71.1562V25H57.6562V22.9492L59.4727 22.5977V10.3516L57.6562 10V7.9375H59.4727H71.1328V12.6133H68.5078L68.3555 10.5742H62.8945V14.8633H68.6719V17.5ZM81.082 23.4531C80.6836 24.0391 80.2109 24.4844 79.6641 24.7891C79.125 25.0938 78.5078 25.2461 77.8125 25.2461C76.25 25.2461 75.0352 24.6758 74.168 23.5352C73.3086 22.3945 72.8789 20.8867 72.8789 19.0117V18.7656C72.8789 16.7656 73.3125 15.1523 74.1797 13.9258C75.0469 12.6992 76.2656 12.0859 77.8359 12.0859C78.4688 12.0859 79.0391 12.2266 79.5469 12.5078C80.0547 12.7812 80.5 13.1719 80.8828 13.6797V9.13281L79.0547 8.78125V6.71875H80.8828H84.3047V22.5977L85.9453 22.9492V25H81.3398L81.082 23.4531ZM76.3008 19.0117C76.3008 20.1211 76.4844 20.9961 76.8516 21.6367C77.2266 22.2695 77.8359 22.5859 78.6797 22.5859C79.1797 22.5859 79.6133 22.4844 79.9805 22.2812C80.3477 22.0781 80.6484 21.7852 80.8828 21.4023V16.0234C80.6484 15.6172 80.3477 15.3047 79.9805 15.0859C79.6211 14.8594 79.1953 14.7461 78.7031 14.7461C77.8672 14.7461 77.2578 15.1172 76.875 15.8594C76.4922 16.6016 76.3008 17.5703 76.3008 18.7656V19.0117ZM95.9062 23.3945C95.5 23.9883 94.9961 24.4453 94.3945 24.7656C93.8008 25.0859 93.1211 25.2461 92.3555 25.2461C91.0195 25.2461 89.9727 24.8203 89.2148 23.9688C88.457 23.1094 88.0781 21.7773 88.0781 19.9727V14.7344L86.6836 14.3828V12.3203H88.0781H91.5V19.9961C91.5 20.918 91.6523 21.582 91.957 21.9883C92.2695 22.3867 92.7305 22.5859 93.3398 22.5859C93.8789 22.5859 94.3438 22.5 94.7344 22.3281C95.1328 22.1484 95.457 21.8945 95.707 21.5664V14.7344L94.207 14.3828V12.3203H95.707H99.1289V22.5977L100.664 22.9492V25H96.1289L95.9062 23.3945ZM102.199 22.9492L103.852 22.5977V14.7227H101.965V12.3203H103.852V10.9141C103.852 9.49219 104.262 8.39844 105.082 7.63281C105.902 6.85938 107.055 6.47266 108.539 6.47266C108.828 6.47266 109.121 6.49609 109.418 6.54297C109.723 6.58203 110.055 6.64062 110.414 6.71875L110.121 9.26172C109.934 9.23047 109.75 9.20312 109.57 9.17969C109.398 9.15625 109.195 9.14453 108.961 9.14453C108.406 9.14453 107.984 9.29688 107.695 9.60156C107.414 9.90625 107.273 10.3438 107.273 10.9141V12.3203H109.793V14.7227H107.273V22.5977L108.926 22.9492V25H102.199V22.9492ZM124.066 14.3828L122.883 14.5586L118.219 26.8984C117.852 27.8125 117.359 28.5781 116.742 29.1953C116.133 29.8125 115.211 30.1211 113.977 30.1211C113.688 30.1211 113.414 30.0977 113.156 30.0508C112.906 30.0039 112.609 29.9375 112.266 29.8516L112.664 27.3555C112.773 27.3711 112.887 27.3867 113.004 27.4023C113.121 27.418 113.223 27.4258 113.309 27.4258C113.879 27.4258 114.316 27.2852 114.621 27.0039C114.926 26.7305 115.16 26.3867 115.324 25.9727L115.711 25.0117L111.691 14.5703L110.508 14.3828V12.3203H116.719V14.3828L115.301 14.6172L117.035 19.6797L117.211 20.5938L117.281 20.6055L119.285 14.6172L117.855 14.3828V12.3203H124.066V14.3828Z" fill="black"/>
</svg>
